# xmcd CD database file
#
# Track frame offsets:
#	150
#	13509
#	35580
#	55675
#	78562
#	93600
#	117232
#	131687
#	152540
#	170588
#	191790
#	218948
#	238050
#	254018
#	274019
#	289321
#	314536
#
# Disc length: 4724 seconds
#
# Revision: 0
# Processed by: cddbd v1.5.2PL0 Copyright (c) Steve Scherf et al.
# Submitted via: CDex 1.70beta2
#
DISCID=fe127211
DTITLE=Louis Armstrong - All Stars 1954 - 1956 CD 2
DYEAR=1955
DGENRE=Jazz
TTITLE0=Honeysuckle Rose
TTITLE1=Blue Turning Grey Over You
TTITLE2=I'm Crazy 'Bout My baby
TTITLE3=Squeeze Me
TTITLE4=Keepin' Out of Mischief Now
TTITLE5=All That Meat and No Potatoes
TTITLE6=I Got a Feeling I'm Falling
TTITLE7=Black and Blue
TTITLE8=Ain't Misbehavin'
TTITLE9=Royal Garden Blues
TTITLE10=The Faithful Hussar
TTITLE11=West End Blues
TTITLE12=Tiger Rag
TTITLE13=Tin Roof Blues
TTITLE14=Undecided
TTITLE15=Muskrat Ramble
TTITLE16=St. Louis Blues
EXTD=YEAR: 1955
EXTT0=
EXTT1=
EXTT2=
EXTT3=
EXTT4=
EXTT5=
EXTT6=
EXTT7=
EXTT8=
EXTT9=
EXTT10=
EXTT11=
EXTT12=
EXTT13=
EXTT14=
EXTT15=
EXTT16=
PLAYORDER=
